<svg width="100%" height="100%" version="1.1" viewBox="0 0 100 100" xmlns="http://www.w3.org/2000/svg">
  <title>A black and white drawing of a brick wall with a chimney.</title>
  <path d="m84.73 14.5h-69.461c-1.5312 0-2.7695 1.2383-2.7695 2.7695v7.9297c0 1.5312 1.2383 2.7695 2.7695 2.7695h3.8203v48.23h-0.96875c-1.6797 0-3.0508 1.3711-3.0508 3.0508v3.2109c0 1.6797 1.3711 3.0508 3.0508 3.0508h63.75c1.6797 0 3.0508-1.3711 3.0508-3.0508v-3.2109c0-1.6797-1.3711-3.0508-3.0508-3.0508h-0.96875v-18.609c3.8281-1.3086 6.5898-4.9414 6.5898-9.1992l-0.003907-31.121c0-1.5312-1.2383-2.7695-2.7695-2.7695zm-69.461 11.031c-0.17969 0-0.33984-0.14844-0.33984-0.33984v-7.9297c0-0.17969 0.16016-0.33984 0.33984-0.33984h8.6992v2.9688c0 1.8008 1.4609 3.3008 3.2617 3.3281 0.48828 0.011719 0.87891 0.42188 0.87891 0.89844v1.3984l-12.84 0.003906zm38.199 19.148c2.7695 0 5.0195-2.25 5.0195-5.0195 0-2.2109 1.8008-4.0117 4.0117-4.0117h0.76953c2.6406 0 4.7812 2.1484 4.7812 4.7812v5.1094h-29.121c0.62891-0.94141 1-2.0703 1-3.2812v-3.5781c0-2.3516 1.9102-4.2617 4.2617-4.2617 2.3516 0 4.2617 1.9102 4.2617 4.2617v0.98047c0 2.7695 2.25 5.0195 5.0195 5.0195zm-4.6914 24.57v6.9492h-27.258v-6.9492h27.262zm-27.262-2.4297v-8.1992h12.109v8.1992zm14.551 0v-8.1992h27.859v8.1992zm15.148 2.4297h27.262v6.9492h-27.262zm15.148-2.4297v-8.1992h12.109v8.1992zm-15.148-10.629v-8.1992h16.84v0.39844c0 3.1914 1.5391 6.0195 3.9219 7.8008h-20.77zm-2.4297-8.1992v8.1992h-27.266v-8.1992h11.012c0.48047 0.12891 0.98047 0.19141 1.5 0.19141s1.0195-0.070313 1.5-0.19141zm-27.262-2.4297v-8.1992h6.6016v4.9219c0 1.2109 0.37109 2.3398 1 3.2812h-7.6016zm0-10.629v-6.9492h6.6016v6.9492zm60.359 43.719c0.32813 0 0.60938 0.28125 0.60938 0.60938v3.2109c0 0.32812-0.28125 0.60938-0.60938 0.60938l-63.762-0.003906c-0.32812 0-0.60938-0.28125-0.60938-0.60938v-3.2109c0-0.32812 0.28125-0.60937 0.60938-0.60937h63.75zm3.1914-30.238c0 4.0195-3.2695 7.2891-7.2891 7.2891-4.0195 0-7.2891-3.2695-7.2891-7.2891v-7.9492c0-3.9805-3.2383-7.2188-7.2188-7.2188h-0.76953c-3.5586 0-6.4492 2.8906-6.4492 6.4492 0 1.4219-1.1602 2.5781-2.5781 2.5781-1.4219 0-2.5781-1.1602-2.5781-2.5781v-0.98047c0-3.6914-3-6.6914-6.6914-6.6914-3.6914 0-6.6914 3-6.6914 6.6914v3.5781c0 1.9219-1.5586 3.4805-3.4805 3.4805-1.9219 0-3.4805-1.5586-3.4805-3.4805v-18.152c0-1.8008-1.4609-3.3008-3.2617-3.3281-0.48828-0.011719-0.87891-0.42188-0.87891-0.89844v-2.9688h58.32c0.17969 0 0.33984 0.14844 0.33984 0.33984v31.121z"></path>
</svg>
