<svg width="100%" height="100%" version="1.1" viewBox="0 0 100 100" xmlns="http://www.w3.org/2000/svg">
  <title>A black and white drawing of a fireplace with flames coming out of it.</title>
  <path d="m27.125 32.551c3.3945 0.85156 8.1992 2.25 10.855 6.9961 1.5508-1.6406 3.0391-3.2891 3.1758-4.7852 0.79688-8.7656-8.4336-15.281 9.0938-29.293 0.79688-0.63672 1.9688 0.097656 1.7422 1.0938-5.3242 23.219 15.465 18.344 15.004 38.656 3.4453-1.5898 5.4727-4.2031 6.0195-8.0273 0.16406-1.1602 1.8438-1.293 2.1445-0.078125 3.3906 12.277 3.1953 22.316-0.57812 30.125h19.109c0.60156 0 1.0938 0.48828 1.0938 1.0938v25.355c0 0.60156-0.48828 1.0938-1.0938 1.0938l-87.375-0.011719c-0.60156 0-1.0938-0.48828-1.0938-1.0938v-25.355c0-0.60156 0.48828-1.0938 1.0938-1.0938h17.957c-1.3477-2.5508-2.0039-5.3242-1.8008-8.3047 0.42969-6.293 1.332-7.9609 3.6797-13.195 3.3281-7.418-1.7305-12.621 0.96875-13.184zm-0.32812 34.68h6.043c0.29297-5.1641 3.6641-9.3242 0.57812-15.316-0.40625-0.78906 0.21875-1.668 1.0586-1.5938 4.2578 0.38672 6.1953 2.918 7.2734 6.375 6.6328-2.2305-2.4805-10.957 8.0234-20.57 0.70312-0.64453 1.8516-0.13281 1.8242 0.83203-0.36328 12.773 9.7148 9.5508 6.7852 24.121 1.6328-1.4922 2.5391-3.6953 3.0664-5.8008 0.23047-0.91797 1.457-1.1289 1.9727-0.32031 2.3984 3.7578 3.375 7.8516 2.9844 12.273h5.7148c3.5859-6.6602 4.2109-15.258 1.8672-25.789-1.5703 3.2383-4.168 5.0938-7.7773 6.4258-0.80078 0.29687-1.5469-0.33203-1.4883-1.0977 0.73828-9.5859-3.5195-13.543-7.7031-17.43-4.7969-4.457-9.5039-8.832-7.7539-20.215-13.074 11.66-5.1406 16.91-5.9531 25.828-0.24609 2.7227-2.8047 5.0039-4.8203 7.2461-0.53125 0.59375-1.5312 0.4375-1.832-0.33203-1.3398-3.457-4.293-5.4961-7.8789-6.6953 1.0312 4.8359 1.2812 7.1484-0.98047 12.18-2.0586 4.582-2.7852 6.1992-3.1602 11.715-0.19922 2.9531 0.57812 5.668 2.1406 8.1602zm37.426 0c0.30859-3.1484-0.14453-6.1289-1.4492-8.9492-1.1172 2.7812-2.9062 5.0195-5.6484 6.1289-0.83203 0.33594-1.7031-0.42578-1.457-1.3086 4.1484-15.02-5.2305-12.117-6.1797-23.508-7.2383 8.8906 2.2852 17.301-8.2695 19.496-2.2266 0.46484-0.80469-4.5039-5.0234-6.168 2.0312 5.9219-0.85156 9.7578-1.1758 14.312h29.199zm28.371 2.1836h-85.184v23.172h2.9727v-11.633c0-2.7734 2.2734-5.0469 5.0469-5.0469h4.5234c2.7812 0 5.0469 2.2656 5.0469 5.0469v11.633h6.9219v-11.633c0-2.7734 2.2734-5.0469 5.0469-5.0469h4.5234c2.7812 0 5.0469 2.2656 5.0469 5.0469v11.633h6.9219v-11.633c0-2.7734 2.2734-5.0469 5.0469-5.0469h4.5234c2.7812 0 5.0469 2.2656 5.0469 5.0469v11.633h6.9219v-11.633c0-2.7734 2.2734-5.0469 5.0469-5.0469h4.5234c2.7812 0 5.0469 2.2656 5.0469 5.0469v11.633h2.9727v-23.172zm-80.027 23.172h10.25v-11.633c0-1.5742-1.2891-2.8633-2.8633-2.8633h-4.5234c-1.582 0-2.8633 1.2812-2.8633 2.8633zm21.539 0h10.25v-11.633c0-1.5742-1.2891-2.8633-2.8633-2.8633h-4.5234c-1.582 0-2.8633 1.2812-2.8633 2.8633zm21.539 0h10.25v-11.633c0-1.5742-1.2891-2.8633-2.8633-2.8633h-4.5234c-1.582 0-2.8633 1.2812-2.8633 2.8633zm21.539 0h10.25v-11.633c0-1.5742-1.2891-2.8633-2.8633-2.8633h-4.5234c-1.582 0-2.8633 1.2812-2.8633 2.8633z" fill-rule="evenodd"></path>
</svg>
